<?xml version="1.0" encoding="UTF-8" standalone="no"?>
<svg
   viewBox="0 0 95.945176 66.564804"
   role="img"
   aria-labelledby="title desc"
   version="1.1"
   id="svg21"
   sodipodi:docname="schreiben.svg"
   inkscape:version="1.4.3 (0d15f75, 2025-12-25)"
   width="95.945175"
   height="66.564804"
   xmlns:inkscape="http://www.inkscape.org/namespaces/inkscape"
   xmlns:sodipodi="http://sodipodi.sourceforge.net/DTD/sodipodi-0.dtd"
   xmlns="http://www.w3.org/2000/svg"
   xmlns:svg="http://www.w3.org/2000/svg"
   xmlns:rdf="http://www.w3.org/1999/02/22-rdf-syntax-ns#"
   xmlns:cc="http://creativecommons.org/ns#"
   xmlns:dc="http://purl.org/dc/elements/1.1/">
  <defs
     id="defs21" />
  <sodipodi:namedview
     id="namedview21"
     pagecolor="#ffffff"
     bordercolor="#000000"
     borderopacity="0.25"
     inkscape:showpageshadow="2"
     inkscape:pageopacity="0.0"
     inkscape:pagecheckerboard="0"
     inkscape:deskcolor="#d1d1d1"
     inkscape:zoom="8.18"
     inkscape:cx="67.603912"
     inkscape:cy="29.645477"
     inkscape:window-width="1920"
     inkscape:window-height="1111"
     inkscape:window-x="-9"
     inkscape:window-y="-9"
     inkscape:window-maximized="1"
     inkscape:current-layer="g25" />
  <title
     id="title">Icon kreatives Schreiben</title>
  <desc
     id="desc">Schlichtes Linien-Icon eines aufgeschlagenen Buches mit Feder für kreatives Schreiben.</desc>
  <g
     fill="none"
     stroke="#00aad4"
     stroke-width="2"
     stroke-linecap="round"
     stroke-linejoin="round"
     id="g21"
     transform="translate(-3.1845312,-31.269251)">
    <g
       id="g27"
       transform="translate(-2)">
      <g
         id="g24"
         transform="matrix(0.94867879,0,0,1.0002387,-15.008076,-0.01560049)">
        <path
           d="m 21.578027,34.573041 c 11.268858,-4.003713 22.537711,-4.003713 32.072889,0 4.334184,2.001855 7.801522,5.004643 10.402034,9.008356 2.60049,-4.003713 6.067833,-7.006501 10.402015,-9.008356 9.535173,-4.003713 20.804033,-4.003713 32.072765,0 V 92.626892 C 91.791654,88.623182 77.922308,88.623182 64.05295,96.630611 50.183578,88.623182 36.314225,88.623182 21.578027,92.626892 Z"
           id="path1"
           style="stroke-width:0.586098;stroke-dasharray:none" />
        <path
           d="M 24.265017,37.815892 C 36.3581,35.02516 47.520944,35.02516 56.823292,38.746126 c 3.720946,1.860473 5.581399,3.720923 6.511691,5.581406 V 95.49041 C 53.10234,88.048665 39.14882,85.257926 24.265017,88.978866 Z"
           id="path2"
           style="stroke-width:0.6;stroke-dasharray:none" />
        <path
           d="M 103.33479,37.815868 C 91.241774,35.02517 80.078982,35.02517 70.776653,38.746105 c -3.72093,1.860462 -5.581388,3.720928 -6.511633,5.581393 v 51.162796 c 10.232568,-7.441855 24.186053,-10.23256 39.06977,-6.511631 z"
           id="path3"
           style="stroke-width:0.6;stroke-dasharray:none" />
        <path
           d="M 51.548766,91.59342 C 54.548766,99.288462 73,99.560361 76,92.044653"
           id="path5"
           style="stroke-width:0.6;stroke-dasharray:none"
           sodipodi:nodetypes="cc" />
        <path
           d="m 31,52 c 8,-2 16,-2 24,1"
           id="path6"
           style="stroke-width:0.6;stroke-dasharray:none" />
        <path
           d="m 31,62 c 8,-2 16,-2 24,1"
           id="path7"
           style="stroke-width:0.6;stroke-dasharray:none" />
        <path
           d="m 31,72 c 8,-2 16,-2 24,1"
           id="path8"
           style="stroke-width:0.6;stroke-dasharray:none" />
        <path
           d="m 31,82 c 8,-2 16,-2 24,1"
           id="path9"
           style="stroke-width:0.6;stroke-dasharray:none" />
        <path
           d="m 76.259405,74 c 7,-2 15,-2 22,1"
           id="path11"
           style="stroke-width:0.6;stroke-dasharray:none" />
        <path
           d="m 76.259405,53.393877 c 7,-2 15,-2 22,1"
           id="path11-5"
           style="stroke-width:0.6;stroke-dasharray:none" />
        <path
           d="m 76.259405,62.393877 c 7,-2 15,-2 22,1"
           id="path11-1"
           style="stroke-width:0.6;stroke-dasharray:none" />
        <path
           d="m 76.259405,82.390144 c 7,-2 15,-2 22,1"
           id="path11-2"
           style="stroke-width:0.6;stroke-dasharray:none" />
      </g>
      <g
         id="g25"
         style="stroke-width:1;stroke-dasharray:none"
         transform="matrix(1.1241619,0.02875524,-0.04581369,1.1828621,-11.63209,-9.7731423)">
        <g
           id="g1" />
        <g
           id="g10">
          <g
             id="g28"
             transform="translate(-2.2237141,6.4781767)"
             style="stroke-width:1;stroke-dasharray:none">
            <g
               id="g23"
               transform="matrix(1.1593117,0,0,1.1593117,-12.263603,-14.796835)"
               style="stroke-width:0.862581;stroke-dasharray:none">
              <g
                 id="g26">
                <path
                   d="m 84.748169,67.661929 c 2.140452,-3.33404 6.912428,-7.590324 10.106802,-9.894683 3.500156,-2.780624 5.463829,-6.907594 5.496379,-12.301003 0.0804,-3.331309 -0.450033,-5.71004 -1.375041,-8.008924 -5.865741,3.259653 -11.071686,7.628853 -13.952548,13.18468 -2.575074,5.079533 -3.021709,10.217641 -2.088943,16.244302"
                   id="path13"
                   style="fill:#ffffff;stroke-width:0.347557;stroke-dasharray:none"
                   sodipodi:nodetypes="cccccc" />
                <path
                   d="M 91.503907,47.308078 C 90.840925,46.350285 90.622021,45.273259 90.802163,44.316194"
                   id="path16-9"
                   style="stroke-width:0.347557;stroke-dasharray:none" />
                <path
                   d="M 86.427716,56.853832 C 85.466974,55.036455 85.094398,53.061285 85.783324,51.097784"
                   id="path14-2"
                   style="stroke-width:0.347557;stroke-dasharray:none" />
                <path
                   d="m 88.761061,46.646468 c -0.464171,1.569305 -0.396111,3.395342 0.325882,5.237906"
                   id="path15-8"
                   style="stroke-width:0.347557;stroke-dasharray:none" />
              </g>
              <path
                 d="m 89.843738,58.834598 c 2.772167,-0.991421 5.360738,-2.80571 7.264746,-5.771443"
                 id="path14"
                 style="stroke-width:0.347557;stroke-dasharray:none" />
              <path
                 d="M 91.606001,53.317378 C 93.96907,52.408827 96.148492,50.677376 97.73523,48.20594"
                 id="path15"
                 style="stroke-width:0.347557;stroke-dasharray:none" />
              <path
                 d="m 93.368278,47.800169 c 1.953926,-0.825715 3.724205,-2.474283 4.993651,-4.451447"
                 id="path16"
                 style="stroke-width:0.347557;stroke-dasharray:none" />
            </g>
            <path
               d="M 84.270367,62.796396 C 90.362987,52.623328 92.754982,43.045213 99.115471,33.218505"
               id="path12"
               style="stroke-width:0.402942;stroke-dasharray:none"
               sodipodi:nodetypes="cc" />
          </g>
          <g
             id="g22"
             transform="matrix(-0.31870963,0.00118298,0.00179575,-0.24458124,103.64714,101.14587)"
             style="stroke-width:1.86274;stroke-dasharray:none">
            <path
               d="m 67.236812,122.39012 2.077672,-10.89968 5.511228,-4.64269 2.055753,7.41783 -6.368332,8.85017 z"
               id="path19"
               style="stroke-width:1.44351;stroke-dasharray:none" />
            <path
               d="m 68.976395,122.40893 3.292919,-8.15634"
               id="path20"
               style="stroke-width:1.44351;stroke-dasharray:none"
               sodipodi:nodetypes="cc" />
            <ellipse
               cx="52.861221"
               cy="128.33031"
               id="circle20"
               style="stroke-width:1.44634;stroke-dasharray:none"
               rx="1.013905"
               ry="1.0046074"
               transform="matrix(0.96674629,-0.25573737,0.16845282,0.98570972,0,0)" />
          </g>
          <ellipse
             style="fill:#ffffff;fill-rule:evenodd;stroke:#00aad4;stroke-width:0.426854;stroke-dasharray:none"
             id="path10"
             cx="99.409515"
             cy="46.04438"
             transform="matrix(0.96402812,0.26580028,-0.2913838,0.95660623,0,0)"
             rx="1.2547399"
             ry="0.60935265" />
        </g>
      </g>
    </g>
    <!-- outer book cover -->
    <!-- inner pages -->
    <!-- center fold -->
    <path
       d="m 43.60517,43.150411 v 54"
       id="path4"
       style="stroke-width:0.6;stroke-dasharray:none"
       inkscape:export-filename="schreiben.svg"
       inkscape:export-xdpi="96"
       inkscape:export-ydpi="96" />
    <!-- text lines left page -->
    <!-- text lines right page -->
    <!-- feather shaft -->
    <!-- feather outline -->
    <!-- feather barbs/notches -->
    <!-- quill nib -->
  </g>
  <metadata
     id="metadata25">
    <rdf:RDF>
      <cc:Work
         rdf:about="">
        <dc:title>Icon kreatives Schreiben</dc:title>
      </cc:Work>
    </rdf:RDF>
  </metadata>
</svg>
